<svg width="200" height="45" viewBox="0 0 200 45" fill="none" xmlns="http://www.w3.org/2000/svg">
<path d="M65.823 20.4813C65.5526 18.2996 63.7118 18.0628 62.0783 18.0628C60.4041 18.0628 59.3189 18.9105 59.3189 20.0367C59.3189 20.9509 59.9671 21.4205 61.0338 21.6075L66.1156 22.5218C68.8343 23.0163 70.9048 24.1425 70.9048 27.2177C70.9048 30.3178 69.0232 32.8527 63.1451 32.8527C59.5263 32.8527 54.7334 32.3374 54.7334 27.1013H59.2967C59.3596 29.4243 61.3894 29.8025 63.1451 29.8025C65.0711 29.8025 66.3453 29.1916 66.3453 27.7122C66.3453 26.4198 65.4267 26.0707 63.8118 25.7881L60.1078 25.1523C57.5151 24.7284 55.0038 23.8391 55.0038 20.4107C55.0038 16.654 57.7225 15.1538 62.408 15.1538C65.4822 15.1538 70.0418 15.7148 70.3159 20.4813H65.823Z" fill="#192740"/>
<path d="M65.823 20.4813C65.5526 18.2996 63.7118 18.0628 62.0783 18.0628C60.4041 18.0628 59.3189 18.9105 59.3189 20.0367C59.3189 20.9509 59.9671 21.4205 61.0338 21.6075L66.1156 22.5218C68.8343 23.0163 70.9048 24.1425 70.9048 27.2177C70.9048 30.3178 69.0232 32.8527 63.1451 32.8527C59.5263 32.8527 54.7334 32.3374 54.7334 27.1013H59.2967C59.3596 29.4243 61.3894 29.8025 63.1451 29.8025C65.0711 29.8025 66.3453 29.1916 66.3453 27.7122C66.3453 26.4198 65.4267 26.0707 63.8118 25.7881L60.1078 25.1523C57.5151 24.7284 55.0038 23.8391 55.0038 20.4107C55.0038 16.654 57.7225 15.1538 62.408 15.1538C65.4822 15.1538 70.0418 15.7148 70.3159 20.4813H65.823Z" fill="#D1CB19"/>
<path d="M82.472 30.6925H82.4313C81.7609 31.748 80.0237 32.8534 77.8495 32.8534C75.9235 32.8534 73.0381 32.0098 73.0381 28.3238V19.8047H76.7198V27.0812C76.7198 28.7934 77.5569 29.6619 79.2311 29.6619C81.2386 29.6619 82.3498 28.4401 82.3498 26.0963V19.8005H86.0315V32.5459H82.4757V30.6925H82.472Z" fill="#192740"/>
<path d="M82.472 30.6925H82.4313C81.7609 31.748 80.0237 32.8534 77.8495 32.8534C75.9235 32.8534 73.0381 32.0098 73.0381 28.3238V19.8047H76.7198V27.0812C76.7198 28.7934 77.5569 29.6619 79.2311 29.6619C81.2386 29.6619 82.3498 28.4401 82.3498 26.0963V19.8005H86.0315V32.5459H82.4757V30.6925H82.472Z" fill="#D1CB19"/>
<path d="M96.415 19.4722C94.8668 19.4722 93.6333 19.8254 92.2332 21.5126H92.1925V19.8005H88.6367V37.0506H92.3184V30.9708H92.3592C93.0926 32.097 94.5778 32.8492 96.6706 32.8492C100.204 32.8492 102.923 30.173 102.923 26.088C102.919 21.6788 100.052 19.4722 96.415 19.4722ZM95.6409 29.799C93.8 29.799 92.1888 28.5315 92.1888 26.1628C92.1888 23.7899 93.8 22.5266 95.6409 22.5266C97.5003 22.5266 99.1115 23.794 99.1115 26.1628C99.1115 28.5315 97.5003 29.799 95.6409 29.799Z" fill="#192740"/>
<path d="M96.415 19.4722C94.8668 19.4722 93.6333 19.8254 92.2332 21.5126H92.1925V19.8005H88.6367V37.0506H92.3184V30.9708H92.3592C93.0926 32.097 94.5778 32.8492 96.6706 32.8492C100.204 32.8492 102.923 30.173 102.923 26.088C102.919 21.6788 100.052 19.4722 96.415 19.4722ZM95.6409 29.799C93.8 29.799 92.1888 28.5315 92.1888 26.1628C92.1888 23.7899 93.8 22.5266 95.6409 22.5266C97.5003 22.5266 99.1115 23.794 99.1115 26.1628C99.1115 28.5315 97.5003 29.799 95.6409 29.799Z" fill="#D1CB19"/>
<path d="M118.954 27.1926V26.8186C118.954 22.1019 116.609 19.3301 111.757 19.3301C107.32 19.3301 104.349 21.3248 104.349 26.0913C104.349 30.8537 107.32 32.8526 111.757 32.8526C115.124 32.8526 117.676 31.61 118.743 28.6263H114.809C114.287 29.7317 113.261 30.2677 111.753 30.2677C109.242 30.2677 108.157 28.4351 108.157 27.2383V27.1926H118.954ZM108.16 24.7075C108.16 24.4249 108.746 21.9149 111.676 21.9149C114.353 21.9149 115.15 24.026 115.15 24.7075V24.7532H108.164V24.7075H108.16Z" fill="#192740"/>
<path d="M118.954 27.1926V26.8186C118.954 22.1019 116.609 19.3301 111.757 19.3301C107.32 19.3301 104.349 21.3248 104.349 26.0913C104.349 30.8537 107.32 32.8526 111.757 32.8526C115.124 32.8526 117.676 31.61 118.743 28.6263H114.809C114.287 29.7317 113.261 30.2677 111.753 30.2677C109.242 30.2677 108.157 28.4351 108.157 27.2383V27.1926H118.954ZM108.16 24.7075C108.16 24.4249 108.746 21.9149 111.676 21.9149C114.353 21.9149 115.15 24.026 115.15 24.7075V24.7532H108.164V24.7075H108.16Z" fill="#D1CB19"/>
<path d="M120.909 19.8002H124.465V22.2645H124.506C125.843 20.3155 126.869 19.4719 128.984 19.4719C129.402 19.4719 129.906 19.4969 130.321 19.5883V23.4613C129.65 23.2494 128.984 23.0873 128.291 23.0873C125.757 23.0873 124.587 24.5169 124.587 26.9604V32.5497H120.905V19.8002H120.909Z" fill="#192740"/>
<path d="M120.909 19.8002H124.465V22.2645H124.506C125.843 20.3155 126.869 19.4719 128.984 19.4719C129.402 19.4719 129.906 19.4969 130.321 19.5883V23.4613C129.65 23.2494 128.984 23.0873 128.291 23.0873C125.757 23.0873 124.587 24.5169 124.587 26.9604V32.5497H120.905V19.8002H120.909Z" fill="#D1CB19"/>
<path d="M138.775 19.3311C134.337 19.3311 131.367 21.3258 131.367 26.0923C131.367 30.8547 134.337 32.8535 138.775 32.8535C143.208 32.8535 146.179 30.8588 146.179 26.0923C146.179 21.3258 143.208 19.3311 138.775 19.3311ZM138.775 29.9404C136.493 29.9404 135.178 28.5566 135.178 26.0923C135.178 23.628 136.497 22.24 138.775 22.24C141.053 22.24 142.371 23.6238 142.371 26.0923C142.371 28.5566 141.053 29.9404 138.775 29.9404Z" fill="#192740"/>
<path d="M138.775 19.3311C134.337 19.3311 131.367 21.3258 131.367 26.0923C131.367 30.8547 134.337 32.8535 138.775 32.8535C143.208 32.8535 146.179 30.8588 146.179 26.0923C146.179 21.3258 143.208 19.3311 138.775 19.3311ZM138.775 29.9404C136.493 29.9404 135.178 28.5566 135.178 26.0923C135.178 23.628 136.497 22.24 138.775 22.24C141.053 22.24 142.371 23.6238 142.371 26.0923C142.371 28.5566 141.053 29.9404 138.775 29.9404Z" fill="#D1CB19"/>
<path d="M151.932 15.3406H148.25V32.5491H151.932V15.3406Z" fill="#192740"/>
<path d="M151.932 15.3406H148.25V32.5491H151.932V15.3406Z" fill="#D1CB19"/>
<path d="M161.361 19.3301C156.923 19.3301 153.953 21.3248 153.953 26.0913C153.953 30.8537 156.923 32.8526 161.361 32.8526C165.794 32.8526 168.765 30.8578 168.765 26.0913C168.765 21.3248 165.794 19.3301 161.361 19.3301ZM161.361 29.9394C159.079 29.9394 157.764 28.5556 157.764 26.0913C157.764 23.627 159.083 22.239 161.361 22.239C163.638 22.239 164.957 23.6229 164.957 26.0913C164.957 28.5556 163.638 29.9394 161.361 29.9394Z" fill="#192740"/>
<path d="M161.361 19.3301C156.923 19.3301 153.953 21.3248 153.953 26.0913C153.953 30.8537 156.923 32.8526 161.361 32.8526C165.794 32.8526 168.765 30.8578 168.765 26.0913C168.765 21.3248 165.794 19.3301 161.361 19.3301ZM161.361 29.9394C159.079 29.9394 157.764 28.5556 157.764 26.0913C157.764 23.627 159.083 22.239 161.361 22.239C163.638 22.239 164.957 23.6229 164.957 26.0913C164.957 28.5556 163.638 29.9394 161.361 29.9394Z" fill="#D1CB19"/>
<path d="M181.232 19.8002V21.3253H181.191C180.206 19.9872 178.576 19.4719 176.924 19.4719C172.239 19.4719 170.25 22.3352 170.25 25.7636C170.25 29.005 172.216 32.0552 176.631 32.0552C178.491 32.0552 180.043 31.515 181.109 30.2018V31.2116C181.109 34.2868 179.539 34.8021 177.72 34.8021C175.587 34.8021 174.854 34.2619 174.646 33.2313H170.713C171.109 37.0337 174.813 37.3869 177.594 37.3869C182.258 37.3869 184.791 35.7205 184.791 31.3779V19.8002H181.232ZM177.572 29.2834C175.961 29.2834 174.057 28.7432 174.057 25.8342C174.057 22.9253 175.961 22.385 177.572 22.385C179.183 22.385 181.109 22.9253 181.109 25.8342C181.106 28.7432 179.18 29.2834 177.572 29.2834Z" fill="#192740"/>
<path d="M181.232 19.8002V21.3253H181.191C180.206 19.9872 178.576 19.4719 176.924 19.4719C172.239 19.4719 170.25 22.3352 170.25 25.7636C170.25 29.005 172.216 32.0552 176.631 32.0552C178.491 32.0552 180.043 31.515 181.109 30.2018V31.2116C181.109 34.2868 179.539 34.8021 177.72 34.8021C175.587 34.8021 174.854 34.2619 174.646 33.2313H170.713C171.109 37.0337 174.813 37.3869 177.594 37.3869C182.258 37.3869 184.791 35.7205 184.791 31.3779V19.8002H181.232ZM177.572 29.2834C175.961 29.2834 174.057 28.7432 174.057 25.8342C174.057 22.9253 175.961 22.385 177.572 22.385C179.183 22.385 181.109 22.9253 181.109 25.8342C181.106 28.7432 179.18 29.2834 177.572 29.2834Z" fill="#D1CB19"/>
<path d="M200 19.8005L193.87 34.4492C192.97 36.5852 192.007 37.0548 189.936 37.0548C189.077 37.0548 188.199 37.0298 187.344 36.9592V34.0502C187.866 34.1209 188.41 34.1458 188.933 34.1458C189.833 34.1458 190.251 33.722 190.67 32.8534L191.048 31.9392L185.777 19.8047H189.773L192.974 28.116L196.07 19.8047H200V19.8005Z" fill="#192740"/>
<path d="M200 19.8005L193.87 34.4492C192.97 36.5852 192.007 37.0548 189.936 37.0548C189.077 37.0548 188.199 37.0298 187.344 36.9592V34.0502C187.866 34.1209 188.41 34.1458 188.933 34.1458C189.833 34.1458 190.251 33.722 190.67 32.8534L191.048 31.9392L185.777 19.8047H189.773L192.974 28.116L196.07 19.8047H200V19.8005Z" fill="#D1CB19"/>
<path d="M38.8248 37.326L33.4763 31.7533C32.7021 30.9471 32.2169 29.796 32.2169 28.5202C32.2169 27.2444 32.7021 26.0933 33.4726 25.2871L38.8285 19.6978C39.5989 18.8916 40.0841 17.7446 40.0841 16.4647C40.0841 14.0295 38.3247 12.0514 36.1505 12.0514C35.6431 12.0514 35.1579 12.1594 34.7097 12.3589L16.1159 20.5746C15.6714 20.7699 15.1862 20.8821 14.675 20.8821C12.5045 20.878 10.7414 18.904 10.7414 16.4647C10.7414 14.2248 12.2304 12.3755 14.1602 12.0888L36.6654 8.78919C38.5951 8.50661 40.0841 6.65735 40.0841 4.4133C40.0841 1.97809 38.3247 0 36.1505 0C35.6431 0 35.1579 0.108047 34.7097 0.307518L16.1159 8.52323H16.1122C15.6677 8.71855 15.1825 8.83075 14.675 8.83075C13.5379 8.83075 12.5119 8.29052 11.7971 7.42199L6.81526 1.40876C6.0967 0.54439 5.0707 0 3.93359 0C1.75937 0 0 1.97809 0 4.4133C0 5.68908 0.481513 6.84019 1.25564 7.64639L6.61154 13.2316C7.38197 14.0378 7.86718 15.1847 7.86718 16.4647C7.86718 17.7405 7.38197 18.8916 6.61154 19.6978L1.25564 25.2871C0.481513 26.0933 0 27.2403 0 28.5202C0 30.9596 1.75937 32.9335 3.93359 32.9335C4.44103 32.9335 4.92625 32.8255 5.37443 32.626L23.9793 24.4103C24.4238 24.215 24.909 24.1028 25.4202 24.1028C27.5944 24.1028 29.3538 26.0808 29.3538 28.5161C29.3538 30.7601 27.8611 32.6094 25.9313 32.8919L3.41874 36.1832C1.48899 36.47 0 38.3192 0 40.5591C0 42.9943 1.75937 44.9724 3.93359 44.9724C4.44103 44.9724 4.92625 44.8644 5.37443 44.6649L23.9793 36.4492C24.4238 36.2539 24.909 36.1458 25.4165 36.1458C26.5573 36.1458 27.5796 36.6902 28.2982 37.5587L33.2651 43.5636C33.9837 44.4322 35.0097 44.9766 36.1468 44.9766C38.321 44.9766 40.0804 42.9985 40.0804 40.5633C40.0841 39.2833 39.5989 38.1322 38.8248 37.326Z" fill="#192740"/>
<path d="M38.8248 37.326L33.4763 31.7533C32.7021 30.9471 32.2169 29.796 32.2169 28.5202C32.2169 27.2444 32.7021 26.0933 33.4726 25.2871L38.8285 19.6978C39.5989 18.8916 40.0841 17.7446 40.0841 16.4647C40.0841 14.0295 38.3247 12.0514 36.1505 12.0514C35.6431 12.0514 35.1579 12.1594 34.7097 12.3589L16.1159 20.5746C15.6714 20.7699 15.1862 20.8821 14.675 20.8821C12.5045 20.878 10.7414 18.904 10.7414 16.4647C10.7414 14.2248 12.2304 12.3755 14.1602 12.0888L36.6654 8.78919C38.5951 8.50661 40.0841 6.65735 40.0841 4.4133C40.0841 1.97809 38.3247 0 36.1505 0C35.6431 0 35.1579 0.108047 34.7097 0.307518L16.1159 8.52323H16.1122C15.6677 8.71855 15.1825 8.83075 14.675 8.83075C13.5379 8.83075 12.5119 8.29052 11.7971 7.42199L6.81526 1.40876C6.0967 0.54439 5.0707 0 3.93359 0C1.75937 0 0 1.97809 0 4.4133C0 5.68908 0.481513 6.84019 1.25564 7.64639L6.61154 13.2316C7.38197 14.0378 7.86718 15.1847 7.86718 16.4647C7.86718 17.7405 7.38197 18.8916 6.61154 19.6978L1.25564 25.2871C0.481513 26.0933 0 27.2403 0 28.5202C0 30.9596 1.75937 32.9335 3.93359 32.9335C4.44103 32.9335 4.92625 32.8255 5.37443 32.626L23.9793 24.4103C24.4238 24.215 24.909 24.1028 25.4202 24.1028C27.5944 24.1028 29.3538 26.0808 29.3538 28.5161C29.3538 30.7601 27.8611 32.6094 25.9313 32.8919L3.41874 36.1832C1.48899 36.47 0 38.3192 0 40.5591C0 42.9943 1.75937 44.9724 3.93359 44.9724C4.44103 44.9724 4.92625 44.8644 5.37443 44.6649L23.9793 36.4492C24.4238 36.2539 24.909 36.1458 25.4165 36.1458C26.5573 36.1458 27.5796 36.6902 28.2982 37.5587L33.2651 43.5636C33.9837 44.4322 35.0097 44.9766 36.1468 44.9766C38.321 44.9766 40.0804 42.9985 40.0804 40.5633C40.0841 39.2833 39.5989 38.1322 38.8248 37.326Z" fill="#D1CB19"/>
</svg>
